<svg xmlns="http://www.w3.org/2000/svg" xmlns:xlink="http://www.w3.org/1999/xlink" version="1.1" x="0px" y="0px" viewBox="0 0 100 125" enable-background="new 0 0 100 100" xml:space="preserve"><g><g><path fill="none" d="M50.971,8.891l-1.035,0.333c0,0,0.004,0,0.01,0L50.971,8.891z"/><path fill="none" d="M59.603,38.977L50,9.421l-9.603,29.556c-0.283,0.871-1.088,1.456-2.004,1.456H7.316l25.141,18.267 c0.741,0.538,1.048,1.485,0.766,2.355l-9.604,29.558l25.142-18.267c0.371-0.27,0.805-0.404,1.239-0.404 c0.434,0,0.868,0.135,1.239,0.404l25.142,18.267l-9.603-29.558c-0.283-0.869,0.024-1.817,0.765-2.355l25.141-18.267H61.608 C60.691,40.433,59.886,39.848,59.603,38.977z"/><path d="M94.893,39.715c-0.288-0.884-1.074-1.456-2.004-1.456l-31.218,0.047l-9.666-29.75V8.555 C51.717,7.671,50.93,7.099,50,7.099c-0.001,0-0.001,0-0.001,0c-0.93,0.001-1.717,0.572-2.004,1.457l-9.603,29.703H7.111 c-0.93,0-1.717,0.572-2.004,1.456C4.82,40.6,5.121,41.525,5.873,42.07l25.283,18.313l-9.667,29.75 c-0.287,0.885,0.014,1.81,0.766,2.356c0.753,0.549,1.724,0.549,2.477,0l25.229-18.386l25.307,18.388 c0.376,0.273,0.807,0.409,1.238,0.409c0.431,0,0.863-0.137,1.24-0.41c0.752-0.548,1.052-1.472,0.765-2.356L68.82,60.457 l25.306-18.385C94.879,41.525,95.18,40.6,94.893,39.715z M50.971,8.891l-1.025,0.333c-0.006,0-0.01,0-0.01,0L50.971,8.891z  M67.542,58.699c-0.741,0.538-1.049,1.486-0.765,2.355l9.603,29.558L51.239,72.346c-0.37-0.27-0.805-0.404-1.239-0.404 c-0.434,0-0.868,0.135-1.239,0.404L23.619,90.612l9.604-29.558c0.282-0.87-0.025-1.817-0.766-2.355L7.316,40.433h31.076 c0.917,0,1.722-0.585,2.004-1.456L50,9.421l9.603,29.556c0.283,0.871,1.088,1.456,2.004,1.456h31.076L67.542,58.699z"/></g></g></svg>
